BioRhyme-Light Extended.ufo
<glyph name="exclam" format="1">
  <advance width="246"/>
  <unicode hex="0021"/>
  <outline>
    <contour>
      <point x="132" y="148" type="line"/>
      <point x="136" y="272" type="line" smooth="yes"/>
      <point x="141" y="423"/>
      <point x="154" y="524"/>
      <point x="154" y="542" type="curve"/>
      <point x="154" y="559"/>
      <point x="145" y="573"/>
      <point x="124" y="573" type="curve"/>
      <point x="102" y="573"/>
      <point x="93" y="559"/>
      <point x="93" y="542" type="curve"/>
      <point x="93" y="524"/>
      <point x="106" y="424"/>
      <point x="111" y="272" type="curve" smooth="yes"/>
      <point x="115" y="148" type="line"/>
    </contour>
    <contour>
      <point x="92" y="54"/>
      <point x="74" y="41"/>
      <point x="74" y="22" type="curve"/>
      <point x="74" y="4"/>
      <point x="92" y="-10"/>
      <point x="123" y="-10" type="curve"/>
      <point x="155" y="-10"/>
      <point x="172" y="4"/>
      <point x="172" y="22" type="curve"/>
      <point x="172" y="41"/>
      <point x="155" y="54"/>
      <point x="123" y="54" type="curve"/>
    </contour>
  </outline>
</glyph>
<glyph name="ampersand" format="1">
  <advance width="784"/>
  <unicode hex="0026"/>
  <outline>
    <contour>
      <point x="1055" y="-279"/>
      <point x="1156" y="-223"/>
      <point x="1214" y="-114" type="curve"/>
      <point x="1194" y="-103" type="line"/>
      <point x="1149" y="-198"/>
      <point x="1052" y="-256"/>
      <point x="902" y="-256" type="curve" smooth="yes"/>
      <point x="610" y="-256"/>
      <point x="297" y="39"/>
      <point x="297" y="345" type="curve" smooth="yes"/>
      <point x="297" y="447"/>
      <point x="359" y="505"/>
      <point x="428" y="505" type="curve" smooth="yes"/>
      <point x="482" y="505"/>
      <point x="516" y="471"/>
      <point x="516" y="425" type="curve" smooth="yes"/>
      <point x="516" y="353"/>
      <point x="436" y="314"/>
      <point x="299" y="294" type="curve" smooth="yes"/>
      <point x="126" y="269"/>
      <point x="40" y="226"/>
      <point x="40" y="133" type="curve" smooth="yes"/>
      <point x="40" y="46"/>
      <point x="148" y="-13"/>
      <point x="333" y="-12" type="curve" smooth="yes"/>
      <point x="579" y="-11"/>
      <point x="730" y="105"/>
      <point x="730" y="239" type="curve" smooth="yes"/>
      <point x="730" y="307"/>
      <point x="698" y="354"/>
      <point x="673" y="375" type="curve"/>
      <point x="656" y="358" type="line"/>
      <point x="681" y="334"/>
      <point x="705" y="298"/>
      <point x="705" y="240" type="curve" smooth="yes"/>
      <point x="705" y="119"/>
      <point x="570" y="11"/>
      <point x="333" y="11" type="curve" smooth="yes"/>
      <point x="153" y="11"/>
      <point x="65" y="66"/>
      <point x="65" y="133" type="curve" smooth="yes"/>
      <point x="65" y="213"/>
      <point x="146" y="248"/>
      <point x="303" y="271" type="curve" smooth="yes"/>
      <point x="454" y="293"/>
      <point x="541" y="336"/>
      <point x="541" y="429" type="curve" smooth="yes"/>
      <point x="541" y="480"/>
      <point x="499" y="528"/>
      <point x="428" y="528" type="curve" smooth="yes"/>
      <point x="336" y="528"/>
      <point x="272" y="447"/>
      <point x="272" y="345" type="curve" smooth="yes"/>
      <point x="272" y="23"/>
      <point x="601" y="-279"/>
      <point x="902" y="-279" type="curve" smooth="yes"/>
    </contour>
  </outline>
</glyph>
<glyph name="quotesingle" format="1">
  <advance width="221"/>
  <unicode hex="0027"/>
  <outline>
    <contour>
      <point x="85" y="360" type="line"/>
      <point x="101" y="358" type="line"/>
      <point x="146" y="556" type="line"/>
      <point x="111" y="562" type="line"/>
    </contour>
  </outline>
</glyph>
<glyph name="parenleft" format="1">
  <advance width="332"/>
  <unicode hex="0028"/>
  <outline>
    <contour>
      <point x="327" y="-70" type="line"/>
      <point x="254" y="-26"/>
      <point x="110" y="77"/>
      <point x="110" y="265" type="curve"/>
      <point x="110" y="453"/>
      <point x="254" y="556"/>
      <point x="327" y="600" type="curve"/>
      <point x="319" y="619" type="line"/>
      <point x="235" y="574"/>
      <point x="85" y="461"/>
      <point x="85" y="265" type="curve"/>
      <point x="85" y="69"/>
      <point x="235" y="-44"/>
      <point x="319" y="-89" type="curve"/>
    </contour>
  </outline>
</glyph>
<glyph name="hyphen" format="1">
  <advance width="326"/>
  <unicode hex="002D"/>
  <outline>
    <contour>
      <point x="28" y="191" type="line"/>
      <point x="28" y="167" type="line"/>
      <point x="298" y="167" type="line"/>
      <point x="298" y="191" type="line"/>
    </contour>
  </outline>
</glyph>
<glyph name="five" format="1">
  <advance width="693"/>
  <unicode hex="0035"/>
  <outline>
    <contour>
      <point x="97" y="447" type="line"/>
      <point x="608" y="447" type="line"/>
      <point x="608" y="470" type="line"/>
      <point x="97" y="470" type="line"/>
    </contour>
    <contour>
      <point x="627" y="232"/>
      <point x="531" y="273"/>
      <point x="376" y="275" type="curve" smooth="yes"/>
      <point x="262" y="277"/>
      <point x="177" y="260"/>
      <point x="96" y="244" type="curve"/>
      <point x="96" y="220" type="line"/>
      <point x="175" y="237"/>
      <point x="255" y="253"/>
      <point x="366" y="252" type="curve" smooth="yes"/>
      <point x="531" y="251"/>
      <point x="603" y="211"/>
      <point x="602" y="137" type="curve" smooth="yes"/>
      <point x="601" y="60"/>
      <point x="491" y="13"/>
      <point x="372" y="13" type="curve" smooth="yes"/>
      <point x="225" y="13"/>
      <point x="124" y="63"/>
      <point x="79" y="96" type="curve"/>
      <point x="65" y="77" type="line"/>
      <point x="112" y="44"/>
      <point x="216" y="-10"/>
      <point x="370" y="-10" type="curve" smooth="yes"/>
      <point x="512" y="-10"/>
      <point x="627" y="50"/>
      <point x="627" y="137" type="curve" smooth="yes"/>
    </contour>
    <contour>
      <point x="96" y="220" type="line"/>
      <point x="120" y="236" type="line"/>
      <point x="120" y="470" type="line"/>
      <point x="96" y="470" type="line"/>
    </contour>
  </outline>
</glyph>
<glyph name="six" format="1">
  <advance width="709"/>
  <unicode hex="0036"/>
  <outline>
    <contour>
      <point x="521" y="-10"/>
      <point x="654" y="47"/>
      <point x="654" y="141" type="curve" smooth="yes"/>
      <point x="654" y="237"/>
      <point x="548" y="273"/>
      <point x="403" y="275" type="curve" smooth="yes"/>
      <point x="269" y="277"/>
      <point x="160" y="247"/>
      <point x="83" y="214" type="curve"/>
      <point x="83" y="190" type="line"/>
      <point x="158" y="224"/>
      <point x="262" y="253"/>
      <point x="393" y="252" type="curve" smooth="yes"/>
      <point x="548" y="251"/>
      <point x="630" y="216"/>
      <point x="628" y="140" type="curve" smooth="yes"/>
      <point x="626" y="67"/>
      <point x="517" y="14"/>
      <point x="368" y="14" type="curve" smooth="yes"/>
      <point x="204" y="14"/>
      <point x="89" y="79"/>
      <point x="89" y="209" type="curve" smooth="yes"/>
      <point x="89" y="361"/>
      <point x="221" y="455"/>
      <point x="393" y="455" type="curve" smooth="yes"/>
      <point x="489" y="455"/>
      <point x="553" y="439"/>
      <point x="608" y="424" type="curve"/>
      <point x="614" y="447" type="line"/>
      <point x="557" y="463"/>
      <point x="496" y="479"/>
      <point x="393" y="479" type="curve" smooth="yes"/>
      <point x="212" y="479"/>
      <point x="65" y="377"/>
      <point x="65" y="212" type="curve" smooth="yes"/>
      <point x="65" y="62"/>
      <point x="182" y="-10"/>
      <point x="368" y="-10" type="curve" smooth="yes"/>
    </contour>
  </outline>
</glyph>
<glyph name="eight" format="1">
  <advance width="779"/>
  <unicode hex="0038"/>
  <outline>
    <contour>
      <point x="609" y="-10"/>
      <point x="709" y="51"/>
      <point x="709" y="122" type="curve" smooth="yes"/>
      <point x="709" y="178"/>
      <point x="650" y="241"/>
      <point x="390" y="247" type="curve" smooth="yes"/>
      <point x="178" y="252"/>
      <point x="115" y="289"/>
      <point x="115" y="348" type="curve" smooth="yes"/>
      <point x="115" y="408"/>
      <point x="211" y="457"/>
      <point x="380" y="457" type="curve" smooth="yes"/>
      <point x="569" y="457"/>
      <point x="664" y="398"/>
      <point x="664" y="334" type="curve" smooth="yes"/>
      <point x="664" y="270"/>
      <point x="598" y="246"/>
      <point x="532" y="219" type="curve"/>
      <point x="560" y="212" type="line"/>
      <point x="625" y="239"/>
      <point x="689" y="269"/>
      <point x="689" y="334" type="curve" smooth="yes"/>
      <point x="689" y="409"/>
      <point x="588" y="480"/>
      <point x="382" y="480" type="curve" smooth="yes"/>
      <point x="190" y="480"/>
      <point x="90" y="419"/>
      <point x="90" y="348" type="curve" smooth="yes"/>
      <point x="90" y="283"/>
      <point x="151" y="227"/>
      <point x="388" y="223" type="curve" smooth="yes"/>
      <point x="620" y="219"/>
      <point x="684" y="173"/>
      <point x="684" y="122" type="curve" smooth="yes"/>
      <point x="684" y="62"/>
      <point x="588" y="13"/>
      <point x="399" y="13" type="curve" smooth="yes"/>
      <point x="190" y="13"/>
      <point x="95" y="72"/>
      <point x="95" y="136" type="curve" smooth="yes"/>
      <point x="95" y="190"/>
      <point x="151" y="224"/>
      <point x="227" y="251" type="curve"/>
      <point x="199" y="258" type="line"/>
      <point x="124" y="231"/>
      <point x="70" y="191"/>
      <point x="70" y="136" type="curve" smooth="yes"/>
      <point x="70" y="61"/>
      <point x="171" y="-10"/>
      <point x="397" y="-10" type="curve" smooth="yes"/>
    </contour>
  </outline>
</glyph>
<glyph name="semicolon" format="1">
  <advance width="267"/>
  <unicode hex="003B"/>
  <outline>
    <contour>
      <point x="146" y="-112"/>
      <point x="193" y="-50"/>
      <point x="193" y="-7" type="curve" smooth="yes"/>
      <point x="193" y="25"/>
      <point x="174" y="45"/>
      <point x="139" y="45" type="curve" smooth="yes"/>
      <point x="108" y="45"/>
      <point x="89" y="30"/>
      <point x="89" y="11" type="curve" smooth="yes"/>
      <point x="89" y="-8"/>
      <point x="107" y="-20"/>
      <point x="132" y="-20" type="curve" smooth="yes"/>
      <point x="147" y="-20"/>
      <point x="160" y="-18"/>
      <point x="172" y="-15" type="curve"/>
      <point x="165" y="-59"/>
      <point x="124" y="-103"/>
      <point x="74" y="-148" type="curve"/>
      <point x="85" y="-160" type="line"/>
    </contour>
    <contour>
      <point x="170" y="301"/>
      <point x="187" y="315"/>
      <point x="187" y="333" type="curve"/>
      <point x="187" y="352"/>
      <point x="170" y="365"/>
      <point x="138" y="365" type="curve"/>
      <point x="107" y="365"/>
      <point x="89" y="352"/>
      <point x="89" y="333" type="curve"/>
      <point x="89" y="315"/>
      <point x="107" y="301"/>
      <point x="138" y="301" type="curve"/>
    </contour>
  </outline>
</glyph>
<glyph name="G" format="1">
  <advance width="874"/>
  <unicode hex="0047"/>
  <outline>
    <contour>
      <point x="653" y="-10"/>
      <point x="799" y="106"/>
      <point x="799" y="252" type="curve" smooth="yes"/>
      <point x="799" y="254" type="line"/>
      <point x="422" y="254" type="line"/>
      <point x="422" y="231" type="line"/>
      <point x="774" y="231" type="line"/>
      <point x="761" y="118"/>
      <point x="647" y="13"/>
      <point x="426" y="13" type="curve" smooth="yes"/>
      <point x="244" y="13"/>
      <point x="95" y="107"/>
      <point x="95" y="259" type="curve" smooth="yes"/>
      <point x="95" y="413"/>
      <point x="249" y="507"/>
      <point x="434" y="507" type="curve" smooth="yes"/>
      <point x="572" y="507"/>
      <point x="689" y="461"/>
      <point x="779" y="330" type="curve"/>
      <point x="791" y="331" type="line"/>
      <point x="791" y="520" type="line"/>
      <point x="768" y="520" type="line"/>
      <point x="768" y="361" type="line"/>
      <point x="779" y="361" type="line"/>
      <point x="710" y="461"/>
      <point x="595" y="530"/>
      <point x="434" y="530" type="curve" smooth="yes"/>
      <point x="241" y="530"/>
      <point x="70" y="431"/>
      <point x="70" y="259" type="curve" smooth="yes"/>
      <point x="70" y="89"/>
      <point x="234" y="-10"/>
      <point x="426" y="-10" type="curve" smooth="yes"/>
    </contour>
    <contour>
      <point x="429" y="530" type="move" name="top"/>
    </contour>
    <contour>
      <point x="429" y="-10" type="move" name="bottom"/>
    </contour>
  </outline>
</glyph>
<glyph name="I" format="1">
  <advance width="501"/>
  <unicode hex="0049"/>
  <outline>
    <contour>
      <point x="263" y="13" type="line" smooth="yes"/>
      <point x="263" y="507" type="line" smooth="yes"/>
      <point x="238" y="507" type="line" smooth="yes"/>
      <point x="238" y="13" type="line" smooth="yes"/>
    </contour>
    <contour>
      <point x="445" y="0" type="line" smooth="yes"/>
      <point x="445" y="23" type="line" smooth="yes"/>
      <point x="56" y="23" type="line" smooth="yes"/>
      <point x="56" y="0" type="line" smooth="yes"/>
    </contour>
    <contour>
      <point x="445" y="497" type="line" smooth="yes"/>
      <point x="445" y="520" type="line" smooth="yes"/>
      <point x="56" y="520" type="line" smooth="yes"/>
      <point x="56" y="497" type="line" smooth="yes"/>
    </contour>
    <contour>
      <point x="445" y="11" type="move" name="ogonek"/>
    </contour>
    <contour>
      <point x="251" y="0" type="move" name="bottom"/>
    </contour>
    <contour>
      <point x="251" y="520" type="move" name="top"/>
    </contour>
  </outline>
</glyph>
<glyph name="R" format="1">
  <advance width="1047"/>
  <unicode hex="0052"/>
  <outline>
    <contour>
      <point x="717" y="241" type="line" smooth="yes"/>
      <point x="841" y="241"/>
      <point x="900" y="309"/>
      <point x="900" y="378" type="curve" smooth="yes"/>
      <point x="900" y="457"/>
      <point x="840" y="520"/>
      <point x="717" y="520" type="curve" smooth="yes"/>
      <point x="56" y="520" type="line"/>
      <point x="56" y="497" type="line"/>
      <point x="717" y="497" type="line" smooth="yes"/>
      <point x="826" y="497"/>
      <point x="875" y="441"/>
      <point x="875" y="378" type="curve" smooth="yes"/>
      <point x="875" y="317"/>
      <point x="823" y="262"/>
      <point x="717" y="262" type="curve" smooth="yes"/>
      <point x="258" y="262" type="line"/>
      <point x="258" y="241" type="line"/>
    </contour>
    <contour>
      <point x="445" y="0" type="line"/>
      <point x="445" y="23" type="line"/>
      <point x="56" y="22" type="line"/>
      <point x="56" y="-1" type="line"/>
    </contour>
    <contour>
      <point x="263" y="13" type="line"/>
      <point x="263" y="507" type="line"/>
      <point x="238" y="507" type="line"/>
      <point x="238" y="13" type="line"/>
    </contour>
    <contour>
      <point x="949" y="-10"/>
      <point x="1012" y="64"/>
      <point x="1012" y="155" type="curve" smooth="yes"/>
      <point x="1012" y="176" type="line"/>
      <point x="987" y="176" type="line"/>
      <point x="987" y="155" type="line" smooth="yes"/>
      <point x="987" y="75"/>
      <point x="931" y="13"/>
      <point x="854" y="13" type="curve" smooth="yes"/>
      <point x="774" y="13"/>
      <point x="734" y="67"/>
      <point x="675" y="138" type="curve" smooth="yes"/>
      <point x="601" y="227"/>
      <point x="568" y="253"/>
      <point x="460" y="253" type="curve" smooth="yes"/>
      <point x="258" y="253" type="line"/>
      <point x="258" y="239" type="line"/>
      <point x="472" y="239" type="line" smooth="yes"/>
      <point x="556" y="239"/>
      <point x="595" y="201"/>
      <point x="654" y="125" type="curve" smooth="yes"/>
      <point x="713" y="49"/>
      <point x="765" y="-10"/>
      <point x="854" y="-10" type="curve" smooth="yes"/>
    </contour>
    <contour>
      <point x="524" y="520" type="move" name="top"/>
    </contour>
    <contour>
      <point x="564" y="0" type="move" name="bottom"/>
    </contour>
  </outline>
</glyph>
<glyph name="T" format="1">
  <advance width="861"/>
  <unicode hex="0054"/>
  <outline>
    <contour>
      <point x="85" y="337" type="line"/>
      <point x="85" y="497" type="line"/>
      <point x="776" y="497" type="line"/>
      <point x="776" y="337" type="line"/>
      <point x="801" y="337" type="line"/>
      <point x="801" y="520" type="line"/>
      <point x="60" y="520" type="line"/>
      <point x="60" y="337" type="line"/>
    </contour>
    <contour>
      <point x="635" y="0" type="line"/>
      <point x="635" y="23" type="line"/>
      <point x="226" y="23" type="line"/>
      <point x="226" y="0" type="line"/>
    </contour>
    <contour>
      <point x="443" y="13" type="line"/>
      <point x="443" y="507" type="line"/>
      <point x="418" y="507" type="line"/>
      <point x="418" y="13" type="line"/>
    </contour>
    <contour>
      <point x="431" y="245" type="move" name="center"/>
    </contour>
    <contour>
      <point x="431" y="0" type="move" name="bottom"/>
    </contour>
    <contour>
      <point x="431" y="520" type="move" name="top"/>
    </contour>
  </outline>
</glyph>
<glyph name="U" format="1">
  <advance width="1031"/>
  <unicode hex="0055"/>
  <outline>
    <contour>
      <point x="709" y="-10"/>
      <point x="834" y="79"/>
      <point x="834" y="254" type="curve" smooth="yes"/>
      <point x="834" y="507" type="line"/>
      <point x="812" y="507" type="line"/>
      <point x="809" y="242" type="line" smooth="yes"/>
      <point x="807" y="89"/>
      <point x="690" y="13"/>
      <point x="516" y="13" type="curve"/>
      <point x="341" y="13"/>
      <point x="224" y="89"/>
      <point x="222" y="243" type="curve" smooth="yes"/>
      <point x="219" y="507" type="line"/>
      <point x="197" y="507" type="line"/>
      <point x="197" y="254" type="line" smooth="yes"/>
      <point x="197" y="79"/>
      <point x="323" y="-10"/>
      <point x="516" y="-10" type="curve"/>
    </contour>
    <contour>
      <point x="401" y="497" type="line"/>
      <point x="401" y="520" type="line"/>
      <point x="15" y="520" type="line"/>
      <point x="15" y="497" type="line"/>
    </contour>
    <contour>
      <point x="1016" y="497" type="line"/>
      <point x="1016" y="520" type="line"/>
      <point x="630" y="520" type="line"/>
      <point x="630" y="497" type="line"/>
    </contour>
    <contour>
      <point x="525" y="-9" type="move" name="ogonek"/>
    </contour>
    <contour>
      <point x="516" y="490" type="move" name="top"/>
    </contour>
    <contour>
      <point x="1007" y="490" type="move" name="topright"/>
    </contour>
    <contour>
      <point x="516" y="-10" type="move" name="bottom"/>
    </contour>
  </outline>
</glyph>
<glyph name="X" format="1">
  <advance width="920"/>
  <unicode hex="0058"/>
  <outline>
    <contour>
      <point x="890" y="0" type="line"/>
      <point x="890" y="23" type="line"/>
      <point x="554" y="23" type="line"/>
      <point x="554" y="0" type="line"/>
    </contour>
    <contour>
      <point x="366" y="0" type="line"/>
      <point x="366" y="23" type="line"/>
      <point x="30" y="23" type="line"/>
      <point x="30" y="0" type="line"/>
    </contour>
    <contour>
      <point x="744" y="12" type="line"/>
      <point x="471" y="261" type="line"/>
      <point x="468" y="261" type="line"/>
      <point x="199" y="507" type="line"/>
      <point x="162" y="507" type="line"/>
      <point x="449" y="246" type="line"/>
      <point x="452" y="246" type="line"/>
      <point x="707" y="12" type="line"/>
    </contour>
    <contour>
      <point x="213" y="12" type="line"/>
      <point x="468" y="246" type="line"/>
      <point x="471" y="246" type="line"/>
      <point x="758" y="507" type="line"/>
      <point x="723" y="507" type="line"/>
      <point x="454" y="261" type="line"/>
      <point x="451" y="261" type="line"/>
      <point x="178" y="12" type="line"/>
    </contour>
    <contour>
      <point x="367" y="497" type="line"/>
      <point x="367" y="520" type="line" smooth="yes"/>
      <point x="30" y="520" type="line"/>
      <point x="30" y="497" type="line"/>
    </contour>
    <contour>
      <point x="890" y="497" type="line"/>
      <point x="890" y="520" type="line"/>
      <point x="553" y="520" type="line" smooth="yes"/>
      <point x="553" y="497" type="line"/>
    </contour>
    <contour>
      <point x="460" y="490" type="move" name="top"/>
    </contour>
    <contour>
      <point x="460" y="0" type="move" name="bottom"/>
    </contour>
  </outline>
</glyph>
<glyph name="Y" format="1">
  <advance width="918"/>
  <unicode hex="0059"/>
  <outline>
    <contour>
      <point x="468" y="178" type="line"/>
      <point x="763" y="508" type="line"/>
      <point x="730" y="508" type="line"/>
      <point x="460" y="206" type="line"/>
      <point x="193" y="505" type="line"/>
      <point x="157" y="505" type="line"/>
      <point x="450" y="178" type="line"/>
    </contour>
    <contour>
      <point x="654" y="0" type="line"/>
      <point x="654" y="23" type="line"/>
      <point x="265" y="23" type="line"/>
      <point x="265" y="0" type="line"/>
    </contour>
    <contour>
      <point x="472" y="0" type="line"/>
      <point x="472" y="204" type="line"/>
      <point x="447" y="204" type="line"/>
      <point x="447" y="0" type="line"/>
    </contour>
    <contour>
      <point x="341" y="497" type="line"/>
      <point x="341" y="520" type="line"/>
      <point x="4" y="520" type="line"/>
      <point x="4" y="497" type="line"/>
    </contour>
    <contour>
      <point x="914" y="497" type="line"/>
      <point x="914" y="520" type="line"/>
      <point x="578" y="520" type="line"/>
      <point x="578" y="497" type="line"/>
    </contour>
    <contour>
      <point x="459" y="490" type="move" name="top"/>
    </contour>
    <contour>
      <point x="459" y="0" type="move" name="bottom"/>
    </contour>
  </outline>
</glyph>
<glyph name="bracketleft" format="1">
  <advance width="369"/>
  <unicode hex="005B"/>
  <outline>
    <contour>
      <point x="155" y="-76" type="line"/>
      <point x="180" y="-76" type="line"/>
      <point x="180" y="604" type="line"/>
      <point x="155" y="604" type="line"/>
    </contour>
    <contour>
      <point x="157" y="581" type="line"/>
      <point x="379" y="581" type="line"/>
      <point x="379" y="604" type="line"/>
      <point x="157" y="604" type="line"/>
    </contour>
    <contour>
      <point x="157" y="-76" type="line"/>
      <point x="379" y="-76" type="line"/>
      <point x="379" y="-53" type="line"/>
      <point x="157" y="-53" type="line"/>
    </contour>
  </outline>
</glyph>
<glyph name="bracketright" format="1">
  <advance width="369"/>
  <unicode hex="005D"/>
  <outline>
    <contour>
      <point x="214" y="-76" type="line"/>
      <point x="214" y="604" type="line"/>
      <point x="189" y="604" type="line"/>
      <point x="189" y="-76" type="line"/>
    </contour>
    <contour>
      <point x="212" y="-76" type="line"/>
      <point x="212" y="-53" type="line"/>
      <point x="-10" y="-53" type="line"/>
      <point x="-10" y="-76" type="line"/>
    </contour>
    <contour>
      <point x="212" y="581" type="line"/>
      <point x="212" y="604" type="line"/>
      <point x="-10" y="604" type="line"/>
      <point x="-10" y="581" type="line"/>
    </contour>
  </outline>
</glyph>
<glyph name="underscore" format="1">
  <advance width="350"/>
  <unicode hex="005F"/>
  <outline>
    <contour>
      <point x="-35" y="-67" type="line"/>
      <point x="-35" y="-91" type="line"/>
      <point x="385" y="-91" type="line"/>
      <point x="385" y="-67" type="line"/>
    </contour>
  </outline>
</glyph>
<glyph name="b" format="1">
  <advance width="849"/>
  <unicode hex="0062"/>
  <outline>
    <contour>
      <point x="168" y="497" type="line"/>
      <point x="168" y="520" type="line"/>
      <point x="-30" y="520" type="line"/>
      <point x="-30" y="497" type="line"/>
    </contour>
    <contour>
      <point x="401" y="367"/>
      <point x="279" y="303"/>
      <point x="163" y="219" type="curve"/>
      <point x="163" y="196" type="line"/>
      <point x="288" y="284"/>
      <point x="417" y="344"/>
      <point x="531" y="344" type="curve"/>
      <point x="664" y="344"/>
      <point x="744" y="283"/>
      <point x="744" y="195" type="curve"/>
      <point x="744" y="85"/>
      <point x="618" y="12"/>
      <point x="466" y="13" type="curve"/>
      <point x="347" y="12"/>
      <point x="234" y="55"/>
      <point x="160" y="95" type="curve"/>
      <point x="160" y="73" type="line"/>
      <point x="232" y="32"/>
      <point x="337" y="-10"/>
      <point x="466" y="-10" type="curve"/>
      <point x="629" y="-10"/>
      <point x="769" y="67"/>
      <point x="769" y="195" type="curve"/>
      <point x="769" y="303"/>
      <point x="674" y="367"/>
      <point x="531" y="367" type="curve"/>
    </contour>
    <contour>
      <point x="177" y="-11" type="line"/>
      <point x="177" y="520" type="line"/>
      <point x="152" y="520" type="line"/>
      <point x="152" y="-11" type="line"/>
    </contour>
    <contour>
      <point x="432" y="367" type="move" name="top"/>
    </contour>
    <contour>
      <point x="432" y="-10" type="move" name="bottom"/>
    </contour>
  </outline>
</glyph>
<glyph name="m" format="1">
  <advance width="1256"/>
  <unicode hex="006D"/>
  <outline>
    <contour>
      <point x="257" y="334" type="line"/>
      <point x="257" y="357" type="line"/>
      <point x="50" y="357" type="line"/>
      <point x="50" y="334" type="line"/>
    </contour>
    <contour>
      <point x="257" y="0" type="line"/>
      <point x="257" y="357" type="line"/>
      <point x="232" y="357" type="line"/>
      <point x="232" y="0" type="line"/>
    </contour>
    <contour>
      <point x="392" y="0" type="line"/>
      <point x="392" y="23" type="line"/>
      <point x="50" y="23" type="line"/>
      <point x="50" y="0" type="line"/>
    </contour>
    <contour>
      <point x="660" y="0" type="line"/>
      <point x="660" y="156" type="line"/>
      <point x="660" y="278"/>
      <point x="621" y="367"/>
      <point x="493" y="367" type="curve" smooth="yes"/>
      <point x="385" y="367"/>
      <point x="299" y="290"/>
      <point x="244" y="211" type="curve"/>
      <point x="244" y="188" type="line"/>
      <point x="313" y="269"/>
      <point x="385" y="344"/>
      <point x="493" y="344" type="curve" smooth="yes"/>
      <point x="611" y="344"/>
      <point x="636" y="258"/>
      <point x="636" y="156" type="curve"/>
      <point x="636" y="0" type="line"/>
    </contour>
    <contour>
      <point x="795" y="0" type="line"/>
      <point x="795" y="23" type="line"/>
      <point x="501" y="23" type="line"/>
      <point x="501" y="0" type="line"/>
    </contour>
    <contour>
      <point x="1064" y="0" type="line"/>
      <point x="1064" y="156" type="line"/>
      <point x="1064" y="278"/>
      <point x="1024" y="367"/>
      <point x="896" y="367" type="curve" smooth="yes"/>
      <point x="788" y="367"/>
      <point x="702" y="290"/>
      <point x="647" y="211" type="curve"/>
      <point x="647" y="188" type="line"/>
      <point x="716" y="269"/>
      <point x="788" y="344"/>
      <point x="896" y="344" type="curve" smooth="yes"/>
      <point x="1015" y="344"/>
      <point x="1039" y="258"/>
      <point x="1039" y="156" type="curve"/>
      <point x="1039" y="0" type="line"/>
    </contour>
    <contour>
      <point x="1246" y="0" type="line"/>
      <point x="1246" y="23" type="line"/>
      <point x="904" y="23" type="line"/>
      <point x="904" y="0" type="line"/>
    </contour>
    <contour>
      <point x="645" y="367" type="move" name="top"/>
    </contour>
    <contour>
      <point x="645" y="0" type="move" name="bottom"/>
    </contour>
  </outline>
</glyph>
<glyph name="o" format="1">
  <advance width="799"/>
  <unicode hex="006F"/>
  <outline>
    <contour>
      <point x="578" y="-10"/>
      <point x="719" y="60"/>
      <point x="719" y="179" type="curve"/>
      <point x="719" y="302"/>
      <point x="578" y="367"/>
      <point x="399" y="367" type="curve"/>
      <point x="221" y="366"/>
      <point x="80" y="302"/>
      <point x="80" y="179" type="curve"/>
      <point x="80" y="60"/>
      <point x="221" y="-10"/>
      <point x="399" y="-10" type="curve" smooth="yes"/>
    </contour>
    <contour>
      <point x="232" y="13"/>
      <point x="105" y="76"/>
      <point x="105" y="179" type="curve"/>
      <point x="105" y="285"/>
      <point x="232" y="343"/>
      <point x="399" y="344" type="curve"/>
      <point x="567" y="344"/>
      <point x="695" y="285"/>
      <point x="695" y="179" type="curve"/>
      <point x="695" y="76"/>
      <point x="567" y="13"/>
      <point x="399" y="13" type="curve" smooth="yes"/>
    </contour>
    <contour>
      <point x="400" y="-10" type="move" name="bottom"/>
    </contour>
    <contour>
      <point x="392" y="-10" type="move" name="ogonek"/>
    </contour>
    <contour>
      <point x="400" y="367" type="move" name="top"/>
    </contour>
    <contour>
      <point x="769" y="357" type="move" name="topright"/>
    </contour>
    <contour>
      <point x="400" y="179" type="move" name="center"/>
    </contour>
  </outline>
</glyph>
<glyph name="asciitilde" format="1">
  <advance width="728"/>
  <unicode hex="007E"/>
  <outline>
    <contour>
      <point x="617" y="137"/>
      <point x="655" y="229"/>
      <point x="658" y="326" type="curve"/>
      <point x="634" y="328" type="line"/>
      <point x="631" y="232"/>
      <point x="599" y="160"/>
      <point x="518" y="160" type="curve" smooth="yes"/>
      <point x="461" y="160"/>
      <point x="413" y="209"/>
      <point x="373" y="249" type="curve" smooth="yes"/>
      <point x="322" y="301"/>
      <point x="276" y="343"/>
      <point x="212" y="343" type="curve" smooth="yes"/>
      <point x="116" y="343"/>
      <point x="73" y="251"/>
      <point x="70" y="154" type="curve"/>
      <point x="94" y="152" type="line"/>
      <point x="97" y="248"/>
      <point x="134" y="320"/>
      <point x="210" y="320" type="curve" smooth="yes"/>
      <point x="272" y="320"/>
      <point x="315" y="272"/>
      <point x="355" y="231" type="curve" smooth="yes"/>
      <point x="405" y="179"/>
      <point x="457" y="137"/>
      <point x="516" y="137" type="curve" smooth="yes"/>
    </contour>
  </outline>
</glyph>
<glyph name="logicalnot" format="1">
  <advance width="637"/>
  <unicode hex="00AC"/>
  <outline>
    <contour>
      <point x="542" y="275" type="line"/>
      <point x="542" y="298" type="line"/>
      <point x="45" y="298" type="line"/>
      <point x="45" y="275" type="line"/>
    </contour>
    <contour>
      <point x="542" y="58" type="line"/>
      <point x="542" y="298" type="line"/>
      <point x="517" y="298" type="line"/>
      <point x="517" y="58" type="line"/>
    </contour>
  </outline>
</glyph>
<glyph name="plusminus" format="1">
  <advance width="637"/>
  <unicode hex="00B1"/>
  <outline>
    <contour>
      <point x="306" y="123" type="line"/>
      <point x="331" y="123" type="line"/>
      <point x="331" y="447" type="line"/>
      <point x="306" y="447" type="line"/>
    </contour>
    <contour>
      <point x="70" y="297" type="line"/>
      <point x="70" y="274" type="line"/>
      <point x="567" y="274" type="line"/>
      <point x="567" y="297" type="line"/>
    </contour>
    <contour>
      <point x="70" y="61" type="line"/>
      <point x="70" y="38" type="line"/>
      <point x="567" y="38" type="line"/>
      <point x="567" y="61" type="line"/>
    </contour>
  </outline>
</glyph>
<glyph name="ordmasculine" format="1">
  <advance width="458"/>
  <unicode hex="00BA"/>
  <outline>
    <contour>
      <point x="334" y="308"/>
      <point x="417" y="349"/>
      <point x="417" y="419" type="curve"/>
      <point x="417" y="492"/>
      <point x="334" y="530"/>
      <point x="229" y="530" type="curve"/>
      <point x="124" y="529"/>
      <point x="41" y="492"/>
      <point x="41" y="419" type="curve"/>
      <point x="41" y="349"/>
      <point x="124" y="308"/>
      <point x="229" y="308" type="curve" smooth="yes"/>
    </contour>
    <contour>
      <point x="131" y="329"/>
      <point x="65" y="364"/>
      <point x="65" y="419" type="curve"/>
      <point x="65" y="477"/>
      <point x="131" y="509"/>
      <point x="229" y="509" type="curve"/>
      <point x="328" y="509"/>
      <point x="394" y="477"/>
      <point x="394" y="419" type="curve"/>
      <point x="394" y="364"/>
      <point x="328" y="329"/>
      <point x="229" y="329" type="curve" smooth="yes"/>
    </contour>
    <contour>
      <point x="61" y="212" type="line"/>
      <point x="407" y="212" type="line"/>
      <point x="407" y="233" type="line"/>
      <point x="61" y="233" type="line"/>
    </contour>
  </outline>
</glyph>
<glyph name="guillemotright" format="1">
  <advance width="700"/>
  <unicode hex="00BB"/>
  <outline>
    <contour>
      <point x="400" y="162"/>
      <point x="498" y="254"/>
      <point x="658" y="254" type="curve" smooth="yes"/>
      <point x="670" y="254" type="line"/>
      <point x="670" y="277" type="line"/>
      <point x="658" y="277" type="line" smooth="yes"/>
      <point x="498" y="277"/>
      <point x="400" y="369"/>
      <point x="361" y="463" type="curve"/>
      <point x="341" y="454" type="line"/>
      <point x="382" y="355"/>
      <point x="486" y="262"/>
      <point x="634" y="262" type="curve"/>
      <point x="634" y="269" type="line"/>
      <point x="486" y="269"/>
      <point x="382" y="176"/>
      <point x="341" y="77" type="curve"/>
      <point x="361" y="68" type="line"/>
    </contour>
    <contour>
      <point x="124" y="157"/>
      <point x="227" y="254"/>
      <point x="357" y="254" type="curve" smooth="yes"/>
      <point x="359" y="254" type="line"/>
      <point x="359" y="277" type="line"/>
      <point x="357" y="277" type="line" smooth="yes"/>
      <point x="227" y="277"/>
      <point x="124" y="374"/>
      <point x="90" y="463" type="curve"/>
      <point x="70" y="454" type="line"/>
      <point x="106" y="360"/>
      <point x="215" y="262"/>
      <point x="333" y="262" type="curve"/>
      <point x="333" y="269" type="line"/>
      <point x="215" y="269"/>
      <point x="106" y="171"/>
      <point x="70" y="77" type="curve"/>
      <point x="90" y="68" type="line"/>
    </contour>
  </outline>
</glyph>
<glyph name="multiply" format="1">
  <advance width="637"/>
  <unicode hex="00D7"/>
  <outline>
    <contour>
      <point x="528" y="70" type="line"/>
      <point x="106" y="423" type="line"/>
      <point x="89" y="404" type="line"/>
      <point x="511" y="51" type="line"/>
    </contour>
    <contour>
      <point x="527" y="405" type="line"/>
      <point x="511" y="423" type="line"/>
      <point x="89" y="70" type="line"/>
      <point x="105" y="52" type="line"/>
    </contour>
  </outline>
</glyph>
<glyph name="eth" format="1">
  <advance width="749"/>
  <unicode hex="00F0"/>
  <outline>
    <contour>
      <point x="328" y="378" type="line"/>
      <point x="346" y="367" type="line"/>
      <point x="514" y="605" type="line"/>
      <point x="496" y="617" type="line"/>
    </contour>
    <contour>
      <point x="522" y="-20"/>
      <point x="659" y="62"/>
      <point x="659" y="224" type="curve" smooth="yes"/>
      <point x="659" y="417"/>
      <point x="467" y="541"/>
      <point x="215" y="572" type="curve"/>
      <point x="209" y="549" type="line"/>
      <point x="465" y="517"/>
      <point x="635" y="400"/>
      <point x="635" y="224" type="curve" smooth="yes"/>
      <point x="635" y="74"/>
      <point x="505" y="4"/>
      <point x="351" y="4" type="curve" smooth="yes"/>
      <point x="207" y="4"/>
      <point x="105" y="64"/>
      <point x="105" y="148" type="curve" smooth="yes"/>
      <point x="105" y="234"/>
      <point x="195" y="292"/>
      <point x="336" y="292" type="curve" smooth="yes"/>
      <point x="455" y="292"/>
      <point x="564" y="254"/>
      <point x="643" y="199" type="curve"/>
      <point x="643" y="224" type="line"/>
      <point x="565" y="276"/>
      <point x="449" y="315"/>
      <point x="339" y="315" type="curve" smooth="yes"/>
      <point x="196" y="315"/>
      <point x="80" y="255"/>
      <point x="80" y="147" type="curve" smooth="yes"/>
      <point x="80" y="43"/>
      <point x="204" y="-20"/>
      <point x="351" y="-20" type="curve" smooth="yes"/>
    </contour>
  </outline>
</glyph>
<glyph name="hbar" format="1">
  <advance width="886"/>
  <unicode hex="0127"/>
  <outline>
    <contour>
      <point x="11" y="456" type="line"/>
      <point x="11" y="434" type="line"/>
      <point x="751" y="434" type="line"/>
      <point x="751" y="456" type="line"/>
    </contour>
    <component base="h"/>
  </outline>
</glyph>
<glyph name="OE" format="1">
  <advance width="1425"/>
  <unicode hex="0152"/>
  <outline>
    <contour>
      <point x="1320" y="0" type="line"/>
      <point x="1320" y="183" type="line"/>
      <point x="1296" y="183" type="line"/>
      <point x="1296" y="23" type="line"/>
      <point x="414" y="23" type="line" smooth="yes"/>
      <point x="220" y="23"/>
      <point x="95" y="102"/>
      <point x="95" y="260" type="curve" smooth="yes"/>
      <point x="95" y="418"/>
      <point x="220" y="497"/>
      <point x="414" y="497" type="curve" smooth="yes"/>
      <point x="1295" y="497" type="line"/>
      <point x="1295" y="337" type="line"/>
      <point x="1320" y="337" type="line"/>
      <point x="1320" y="520" type="line"/>
      <point x="414" y="520" type="line" smooth="yes"/>
      <point x="209" y="520"/>
      <point x="70" y="435"/>
      <point x="70" y="260" type="curve" smooth="yes"/>
      <point x="70" y="85"/>
      <point x="209" y="0"/>
      <point x="414" y="0" type="curve" smooth="yes"/>
    </contour>
    <contour>
      <point x="721" y="13" type="line"/>
      <point x="721" y="507" type="line"/>
      <point x="696" y="507" type="line"/>
      <point x="696" y="13" type="line"/>
    </contour>
    <contour>
      <point x="1041" y="261" type="line"/>
      <point x="1041" y="284" type="line"/>
      <point x="718" y="284" type="line"/>
      <point x="718" y="261" type="line"/>
    </contour>
    <contour>
      <point x="1054" y="153" type="line"/>
      <point x="1054" y="392" type="line"/>
      <point x="1029" y="392" type="line"/>
      <point x="1029" y="153" type="line"/>
    </contour>
    <contour>
      <point x="756" y="0" type="move" name="bottom"/>
    </contour>
    <contour>
      <point x="1320" y="0" type="move" name="ogonek"/>
    </contour>
    <contour>
      <point x="756" y="520" type="move" name="top"/>
    </contour>
    <contour>
      <point x="756" y="245" type="move" name="center"/>
    </contour>
  </outline>
</glyph>
<glyph name="uni02BA" format="1">
  <advance width="505"/>
  <unicode hex="02BA"/>
  <outline>
    <contour>
      <point x="120" y="328" type="line"/>
      <point x="134" y="324" type="line"/>
      <point x="220" y="548" type="line"/>
      <point x="190" y="556" type="line"/>
    </contour>
    <contour>
      <point x="300" y="328" type="line"/>
      <point x="314" y="324" type="line"/>
      <point x="400" y="548" type="line"/>
      <point x="370" y="556" type="line"/>
    </contour>
  </outline>
</glyph>
<glyph name="uni0306" format="1">
  <advance width="486"/>
  <unicode hex="0306"/>
  <outline>
    <contour>
      <point x="317" y="508"/>
      <point x="376" y="560"/>
      <point x="396" y="630" type="curve"/>
      <point x="416" y="625" type="line"/>
      <point x="401" y="555"/>
      <point x="340" y="484"/>
      <point x="243" y="484" type="curve"/>
      <point x="146" y="484"/>
      <point x="85" y="555"/>
      <point x="70" y="625" type="curve"/>
      <point x="90" y="630" type="line"/>
      <point x="110" y="560"/>
      <point x="171" y="508"/>
      <point x="244" y="508" type="curve"/>
    </contour>
    <contour>
      <point x="243" y="391" type="move" name="_top"/>
    </contour>
  </outline>
</glyph>
<glyph name="endash" format="1">
  <advance width="595"/>
  <unicode hex="2013"/>
  <outline>
    <contour>
      <point x="28" y="190" type="line"/>
      <point x="28" y="167" type="line"/>
      <point x="567" y="167" type="line"/>
      <point x="567" y="190" type="line"/>
    </contour>
  </outline>
</glyph>
<glyph name="quoteleft" format="1">
  <advance width="267"/>
  <unicode hex="2018"/>
  <outline>
    <contour>
      <point x="159" y="367"/>
      <point x="178" y="382"/>
      <point x="178" y="401" type="curve" smooth="yes"/>
      <point x="178" y="419"/>
      <point x="160" y="431"/>
      <point x="135" y="431" type="curve" smooth="yes"/>
      <point x="120" y="431"/>
      <point x="107" y="429"/>
      <point x="95" y="426" type="curve"/>
      <point x="102" y="470"/>
      <point x="143" y="515"/>
      <point x="193" y="560" type="curve"/>
      <point x="181" y="572" type="line"/>
      <point x="120" y="524"/>
      <point x="74" y="462"/>
      <point x="74" y="419" type="curve" smooth="yes"/>
      <point x="74" y="387"/>
      <point x="93" y="367"/>
      <point x="128" y="367" type="curve" smooth="yes"/>
    </contour>
  </outline>
</glyph>
<glyph name="quotedblleft" format="1">
  <advance width="410"/>
  <unicode hex="201C"/>
  <outline>
    <contour>
      <point x="302" y="367"/>
      <point x="321" y="382"/>
      <point x="321" y="401" type="curve" smooth="yes"/>
      <point x="321" y="419"/>
      <point x="303" y="431"/>
      <point x="278" y="431" type="curve" smooth="yes"/>
      <point x="263" y="431"/>
      <point x="250" y="429"/>
      <point x="238" y="426" type="curve"/>
      <point x="245" y="470"/>
      <point x="286" y="515"/>
      <point x="336" y="560" type="curve"/>
      <point x="324" y="572" type="line"/>
      <point x="263" y="524"/>
      <point x="217" y="462"/>
      <point x="217" y="419" type="curve" smooth="yes"/>
      <point x="217" y="387"/>
      <point x="236" y="367"/>
      <point x="271" y="367" type="curve" smooth="yes"/>
    </contour>
    <contour>
      <point x="159" y="367"/>
      <point x="178" y="382"/>
      <point x="178" y="401" type="curve" smooth="yes"/>
      <point x="178" y="419"/>
      <point x="160" y="431"/>
      <point x="135" y="431" type="curve" smooth="yes"/>
      <point x="120" y="431"/>
      <point x="107" y="429"/>
      <point x="95" y="426" type="curve"/>
      <point x="102" y="470"/>
      <point x="143" y="515"/>
      <point x="193" y="560" type="curve"/>
      <point x="181" y="572" type="line"/>
      <point x="120" y="524"/>
      <point x="74" y="462"/>
      <point x="74" y="419" type="curve" smooth="yes"/>
      <point x="74" y="387"/>
      <point x="93" y="367"/>
      <point x="128" y="367" type="curve" smooth="yes"/>
    </contour>
  </outline>
</glyph>
<glyph name="guilsinglleft" format="1">
  <advance width="429"/>
  <unicode hex="2039"/>
  <outline>
    <contour>
      <point x="214" y="261"/>
      <point x="318" y="354"/>
      <point x="359" y="453" type="curve"/>
      <point x="339" y="462" type="line"/>
      <point x="300" y="368"/>
      <point x="202" y="276"/>
      <point x="42" y="276" type="curve" smooth="yes"/>
      <point x="30" y="276" type="line"/>
      <point x="30" y="253" type="line"/>
      <point x="42" y="253" type="line" smooth="yes"/>
      <point x="202" y="253"/>
      <point x="300" y="161"/>
      <point x="339" y="67" type="curve"/>
      <point x="359" y="76" type="line"/>
      <point x="318" y="175"/>
      <point x="214" y="268"/>
      <point x="66" y="268" type="curve"/>
      <point x="66" y="261" type="line"/>
    </contour>
  </outline>
</glyph>
<glyph name="guilsinglright" format="1">
  <advance width="429"/>
  <unicode hex="203A"/>
  <outline>
    <contour>
      <point x="129" y="161"/>
      <point x="227" y="253"/>
      <point x="387" y="253" type="curve" smooth="yes"/>
      <point x="399" y="253" type="line"/>
      <point x="399" y="276" type="line"/>
      <point x="387" y="276" type="line" smooth="yes"/>
      <point x="227" y="276"/>
      <point x="129" y="368"/>
      <point x="90" y="462" type="curve"/>
      <point x="70" y="453" type="line"/>
      <point x="111" y="354"/>
      <point x="215" y="261"/>
      <point x="363" y="261" type="curve"/>
      <point x="363" y="268" type="line"/>
      <point x="215" y="268"/>
      <point x="111" y="175"/>
      <point x="70" y="76" type="curve"/>
      <point x="90" y="67" type="line"/>
    </contour>
  </outline>
</glyph>
<glyph name="fraction" format="1">
  <advance width="205"/>
  <unicode hex="2044"/>
  <outline>
    <contour>
      <point x="-95" y="-54" type="line"/>
      <point x="-70" y="-69" type="line"/>
      <point x="111" y="239" type="line"/>
      <point x="300" y="543" type="line"/>
      <point x="275" y="558" type="line"/>
      <point x="94" y="249" type="line"/>
    </contour>
  </outline>
</glyph>
<glyph name="trademark" format="1">
  <advance width="909"/>
  <unicode hex="2122"/>
  <outline>
    <contour>
      <point x="625" y="296" type="line"/>
      <point x="629" y="328" type="line"/>
      <point x="486" y="520" type="line"/>
      <point x="456" y="520" type="line"/>
      <point x="623" y="296" type="line"/>
    </contour>
    <contour>
      <point x="278" y="300" type="line"/>
      <point x="278" y="323" type="line"/>
      <point x="105" y="323" type="line"/>
      <point x="105" y="300" type="line"/>
    </contour>
    <contour>
      <point x="204" y="305" type="line"/>
      <point x="204" y="502" type="line"/>
      <point x="179" y="502" type="line"/>
      <point x="179" y="305" type="line"/>
    </contour>
    <contour>
      <point x="60" y="443" type="line"/>
      <point x="60" y="497" type="line"/>
      <point x="324" y="497" type="line"/>
      <point x="324" y="443" type="line"/>
      <point x="349" y="443" type="line"/>
      <point x="349" y="520" type="line"/>
      <point x="35" y="520" type="line"/>
      <point x="35" y="443" type="line"/>
    </contour>
    <contour>
      <point x="532" y="300" type="line"/>
      <point x="532" y="323" type="line"/>
      <point x="389" y="323" type="line"/>
      <point x="389" y="300" type="line"/>
    </contour>
    <contour>
      <point x="481" y="305" type="line"/>
      <point x="481" y="520" type="line"/>
      <point x="456" y="520" type="line"/>
      <point x="456" y="305" type="line"/>
    </contour>
    <contour>
      <point x="479" y="497" type="line"/>
      <point x="479" y="520" type="line"/>
      <point x="389" y="520" type="line"/>
      <point x="389" y="497" type="line"/>
    </contour>
    <contour>
      <point x="859" y="300" type="line"/>
      <point x="859" y="323" type="line"/>
      <point x="717" y="323" type="line"/>
      <point x="717" y="300" type="line"/>
    </contour>
    <contour>
      <point x="625" y="296" type="line"/>
      <point x="793" y="520" type="line"/>
      <point x="764" y="520" type="line"/>
      <point x="621" y="327" type="line"/>
      <point x="623" y="296" type="line"/>
    </contour>
    <contour>
      <point x="792" y="305" type="line"/>
      <point x="792" y="520" type="line"/>
      <point x="767" y="520" type="line"/>
      <point x="767" y="305" type="line"/>
    </contour>
    <contour>
      <point x="859" y="497" type="line"/>
      <point x="859" y="520" type="line"/>
      <point x="770" y="520" type="line"/>
      <point x="770" y="497" type="line"/>
    </contour>
  </outline>
</glyph>
<glyph name="minus" format="1">
  <advance width="637"/>
  <unicode hex="2212"/>
  <outline>
    <contour>
      <point x="70" y="247" type="line"/>
      <point x="70" y="224" type="line"/>
      <point x="567" y="224" type="line"/>
      <point x="567" y="247" type="line"/>
    </contour>
  </outline>
</glyph>
<glyph name="A.alt" format="1">
  <advance width="1028"/>
  <outline>
    <contour>
      <point x="512" y="530" type="line"/>
      <point x="155" y="13" type="line"/>
      <point x="184" y="13" type="line"/>
      <point x="521" y="498" type="line"/>
      <point x="509" y="498" type="line"/>
      <point x="845" y="13" type="line"/>
      <point x="874" y="13" type="line"/>
      <point x="518" y="530" type="line"/>
    </contour>
    <contour>
      <point x="1028" y="0" type="line"/>
      <point x="1028" y="23" type="line"/>
      <point x="691" y="23" type="line"/>
      <point x="691" y="0" type="line"/>
    </contour>
    <contour>
      <point x="337" y="0" type="line"/>
      <point x="337" y="23" type="line"/>
      <point x="0" y="23" type="line"/>
      <point x="0" y="0" type="line"/>
    </contour>
    <contour>
      <point x="721" y="206" type="line"/>
      <point x="309" y="206" type="line"/>
      <point x="290" y="183" type="line"/>
      <point x="736" y="183" type="line"/>
    </contour>
    <contour>
      <point x="912" y="10" type="move" name="ogonek"/>
    </contour>
    <contour>
      <point x="515" y="0" type="move" name="bottom"/>
    </contour>
    <contour>
      <point x="515" y="490" type="move" name="top"/>
    </contour>
  </outline>
</glyph>
<glyph name="g.alt" format="1">
  <advance width="816"/>
  <outline>
    <contour>
      <point x="592" y="-210"/>
      <point x="687" y="-121"/>
      <point x="686" y="18" type="curve"/>
      <point x="686" y="357" type="line"/>
      <point x="661" y="347" type="line"/>
      <point x="661" y="17" type="line"/>
      <point x="661" y="-106"/>
      <point x="575" y="-187"/>
      <point x="411" y="-187" type="curve" smooth="yes"/>
      <point x="305" y="-187"/>
      <point x="183" y="-154"/>
      <point x="109" y="-120" type="curve"/>
      <point x="102" y="-143" type="line"/>
      <point x="176" y="-177"/>
      <point x="299" y="-210"/>
      <point x="410" y="-210" type="curve" smooth="yes"/>
    </contour>
    <contour>
      <point x="438" y="-11"/>
      <point x="560" y="53"/>
      <point x="676" y="137" type="curve"/>
      <point x="676" y="160" type="line"/>
      <point x="551" y="72"/>
      <point x="422" y="12"/>
      <point x="308" y="12" type="curve"/>
      <point x="175" y="12"/>
      <point x="95" y="73"/>
      <point x="95" y="161" type="curve"/>
      <point x="95" y="271"/>
      <point x="221" y="344"/>
      <point x="373" y="343" type="curve"/>
      <point x="492" y="344"/>
      <point x="605" y="301"/>
      <point x="679" y="261" type="curve"/>
      <point x="679" y="283" type="line"/>
      <point x="607" y="324"/>
      <point x="502" y="366"/>
      <point x="373" y="366" type="curve"/>
      <point x="210" y="366"/>
      <point x="70" y="289"/>
      <point x="70" y="161" type="curve"/>
      <point x="70" y="53"/>
      <point x="165" y="-11"/>
      <point x="308" y="-11" type="curve"/>
    </contour>
    <contour>
      <point x="398" y="387" type="move" name="top"/>
    </contour>
    <contour>
      <point x="398" y="-210" type="move" name="bottom"/>
    </contour>
  </outline>
</glyph>
<glyph name="one.numr" format="1">
  <advance width="318"/>
  <outline>
    <contour>
      <point x="116" y="392"/>
      <point x="171" y="420"/>
      <point x="191" y="472" type="curve"/>
      <point x="171" y="480" type="line"/>
      <point x="156" y="435"/>
      <point x="107" y="416"/>
      <point x="56" y="410" type="curve"/>
      <point x="58" y="387" type="line"/>
    </contour>
    <contour>
      <point x="288" y="198" type="line"/>
      <point x="288" y="219" type="line"/>
      <point x="55" y="219" type="line"/>
      <point x="55" y="198" type="line"/>
    </contour>
    <contour>
      <point x="194" y="198" type="line"/>
      <point x="194" y="480" type="line"/>
      <point x="171" y="480" type="line"/>
      <point x="171" y="198" type="line"/>
    </contour>
  </outline>
</glyph>
<glyph name="seven.alt" format="1">
  <advance width="693"/>
  <outline>
    <contour>
      <point x="638" y="436" type="line" smooth="yes"/>
      <point x="638" y="325"/>
      <point x="547" y="304"/>
      <point x="383" y="247" type="curve" smooth="yes"/>
      <point x="222" y="191"/>
      <point x="162" y="101"/>
      <point x="162" y="0" type="curve"/>
      <point x="187" y="0" type="line"/>
      <point x="187" y="85"/>
      <point x="235" y="169"/>
      <point x="393" y="225" type="curve" smooth="yes"/>
      <point x="558" y="283"/>
      <point x="663" y="312"/>
      <point x="663" y="436" type="curve" smooth="yes"/>
      <point x="663" y="453" type="line"/>
      <point x="638" y="453" type="line"/>
    </contour>
    <contour>
      <point x="80" y="470" type="line"/>
      <point x="80" y="287" type="line"/>
      <point x="104" y="287" type="line"/>
      <point x="104" y="447" type="line"/>
      <point x="663" y="447" type="line"/>
      <point x="663" y="470" type="line"/>
    </contour>
  </outline>
</glyph>
